<svg xmlns="http://www.w3.org/2000/svg" width="1920" height="182.849" viewBox="0 0 1920 182.849"><defs><style>.a{fill:#262726;}</style></defs><path class="a" d="M-2,1087s33.32,136.462,75.693,99.47,28.556-55.782,62.639-53.433,35.961,105.173,66.324,106.279,29.477-125.656,64.481-126.243,44.216,48.736,75.535,48.736,81.062-32.882,116.067-32.295,70.93,78.094,108.7,78.094,48.822-105.692,73.693-106.279,81.062,38.166,120.672,39.928,36.847-15.267,76.457-15.267,15.66,94.535,64.481,94.535,21.187-118.609,71.851-119.2,55.27,143.858,109.618,145.032,101.328-119.2,156.6-120.371,71.851,64.589,119.751,65.177,31.32-42.277,64.481-42.277,17.5,120.958,62.639,120.958,39.61-155.6,80.141-156.776,41.453,27.01,81.984,28.184,18.423-44.625,61.718-45.213,42.374,91.012,64.481,91.6,55.27-83.379,80.141-82.792,22.108,43.451,37.768,44.038S1918,1087,1918,1087Z" transform="translate(2 -1087)"/></svg>